<?xml version="1.0" standalone="no"?>
<!DOCTYPE svg PUBLIC "-//W3C//DTD SVG 20010904//EN"
 "http://www.w3.org/TR/2001/REC-SVG-20010904/DTD/svg10.dtd">
<svg version="1.0" xmlns="http://www.w3.org/2000/svg"
 width="610.000000pt" height="610.000000pt" viewBox="0 0 610.000000 610.000000"
 preserveAspectRatio="xMidYMid meet">
<metadata>
Created by potrace 1.11, written by Peter Selinger 2001-2013
</metadata>
<g transform="translate(0.000000,610.000000) scale(0.100000,-0.100000)"
fill="#000000" stroke="none">
<path d="M4430 5611 c-18 -5 -33 -22 -54 -66 -49 -104 -64 -168 -62 -264 1
-76 6 -96 33 -152 37 -74 100 -141 172 -184 28 -16 51 -32 51 -35 0 -3 -27
-14 -61 -24 -181 -56 -436 -233 -579 -402 -191 -225 -331 -485 -446 -832 -47
-139 -110 -375 -128 -477 -3 -16 -8 -41 -11 -55 -3 -14 -7 -38 -10 -55 -3 -16
-7 -41 -10 -55 -3 -14 -7 -41 -10 -60 -3 -19 -8 -47 -11 -62 -3 -15 -7 -42 -9
-60 -2 -18 -6 -53 -9 -78 -16 -116 -22 -180 -16 -180 4 0 13 33 20 73 8 39 15
77 16 82 1 6 11 53 23 105 125 594 336 1114 585 1445 56 75 193 219 261 275
132 109 366 221 509 244 21 4 41 8 45 10 9 6 141 20 169 18 17 -1 22 4 22 21
0 12 4 17 8 12 4 -6 27 -12 52 -13 25 -2 56 -5 70 -8 14 -2 36 -6 49 -9 266
-50 456 -221 495 -442 5 -31 4 -33 -32 -39 -20 -4 -80 -8 -132 -9 -327 -4
-510 149 -510 428 0 28 -3 48 -6 44 -11 -10 -6 -172 6 -217 44 -163 174 -268
382 -310 92 -18 332 -17 370 2 12 5 15 17 13 40 -2 18 -6 56 -9 83 -21 188
-138 349 -327 448 -98 51 -182 80 -271 94 -37 6 -38 6 -40 52 -3 107 -17 174
-55 266 -80 191 -255 321 -463 341 -25 3 -49 6 -55 8 -5 1 -21 0 -35 -3z m150
-155 c200 -60 308 -203 335 -438 l7 -58 -34 6 c-93 16 -197 48 -257 79 -120
62 -180 142 -181 240 0 46 22 154 36 176 8 13 42 11 94 -5z"/>
<path d="M898 4715 c-2 -1 -52 -5 -113 -8 -60 -4 -146 -13 -190 -22 -205 -39
-296 -97 -330 -208 -16 -54 -17 -54 76 -37 101 17 141 22 289 36 25 2 129 7
232 10 l187 7 -50 -119 c-400 -939 -563 -1394 -584 -1627 -11 -123 78 -212
220 -220 l40 -2 2 101 c1 117 8 156 69 394 25 96 47 182 49 190 7 30 97 338
136 465 63 204 145 444 217 638 l66 177 61 1 c113 2 189 7 350 25 107 12 290
90 302 129 2 6 -17 11 -44 11 -58 1 -272 15 -294 19 -9 2 -56 6 -105 10 -49 4
-97 9 -106 11 -37 6 -474 24 -480 19z"/>
<path d="M2515 4708 c-174 -20 -327 -95 -466 -229 -86 -83 -158 -196 -200
-315 -31 -86 -35 -223 -8 -301 41 -122 159 -232 374 -349 301 -163 401 -241
453 -352 36 -76 37 -183 2 -255 -65 -138 -245 -230 -458 -236 -409 -11 -572
348 -306 674 l46 57 -54 -6 c-75 -8 -106 -15 -147 -32 -103 -43 -173 -113
-203 -204 -20 -60 -21 -207 -1 -273 62 -213 282 -353 570 -361 358 -11 667
163 755 424 22 67 29 196 14 270 -12 64 -65 156 -123 217 -71 74 -134 116
-355 239 -198 110 -243 140 -294 192 -111 112 -107 261 10 441 40 61 116 143
176 189 130 100 373 143 438 78 47 -46 36 -116 -53 -351 -55 -143 -61 -165
-71 -242 -11 -78 28 -141 97 -158 22 -6 29 1 66 67 73 129 132 277 159 393 13
60 13 211 0 251 -19 53 -81 123 -130 145 -67 29 -181 40 -291 27z"/>
<path d="M1373 2335 c-55 -44 -87 -169 -54 -209 14 -16 3 -53 -65 -219 -106
-260 -182 -387 -304 -506 -70 -68 -230 -177 -230 -156 0 2 9 28 21 57 70 178
163 506 175 621 l6 57 -33 1 c-108 4 -141 -33 -180 -198 -18 -76 -28 -98 -76
-161 -104 -136 -223 -244 -300 -270 -85 -29 -136 25 -132 141 8 203 196 472
395 564 76 35 199 40 233 9 25 -22 46 -10 54 30 6 32 -35 82 -73 89 -216 43
-523 -122 -687 -368 -131 -197 -142 -450 -23 -550 55 -47 129 -54 218 -23 82
29 186 118 282 240 29 37 53 66 55 66 5 0 -82 -291 -107 -358 l-24 -63 -114
-61 c-161 -85 -238 -137 -310 -208 -76 -76 -99 -124 -100 -208 0 -79 18 -116
72 -143 52 -26 133 -22 196 10 113 58 263 276 386 564 25 58 36 72 70 89 149
76 322 229 404 357 42 65 152 295 207 431 21 52 40 97 42 99 12 16 114 -73
138 -120 26 -50 12 -142 -45 -284 -72 -180 -88 -236 -87 -303 3 -107 75 -173
188 -173 114 0 203 36 315 127 l40 33 13 -36 c20 -54 98 -127 162 -151 65 -24
196 -27 279 -6 132 35 268 120 372 234 l64 70 3 -41 c6 -110 69 -210 161 -258
71 -37 145 -44 257 -25 142 24 274 98 402 225 l72 71 -26 -68 c-32 -85 -28
-107 25 -128 77 -31 89 -25 144 67 67 112 209 325 241 362 162 186 266 245
374 210 30 -9 54 -63 52 -120 -1 -53 -8 -87 -54 -260 -25 -96 -26 -159 -2
-205 41 -80 166 -108 285 -64 59 22 95 47 152 107 l48 49 10 -27 c5 -14 10
-30 10 -34 0 -4 17 -35 39 -68 63 -97 148 -135 295 -129 145 5 232 53 302 166
30 49 41 59 72 65 64 12 164 68 218 122 81 83 140 213 95 213 -5 0 -21 -21
-37 -47 -31 -55 -80 -120 -109 -146 -40 -36 -122 -85 -159 -95 l-38 -11 8 42
c8 47 7 168 -1 207 -3 14 -7 34 -9 45 -7 37 -27 109 -68 240 -22 72 -42 139
-44 150 -10 48 -12 132 -4 177 11 57 6 76 -23 80 -62 11 -116 -63 -117 -158 0
-70 -48 -164 -163 -319 -66 -89 -130 -155 -149 -155 -6 0 -29 -12 -50 -26 -43
-30 -78 -94 -82 -153 -4 -46 -39 -104 -104 -167 -76 -75 -160 -96 -202 -52
-38 41 -31 109 31 276 60 163 70 251 38 338 -22 57 -66 109 -107 125 -78 31
-203 1 -300 -72 -93 -71 -231 -224 -313 -349 -12 -17 -6 14 17 99 62 226 55
282 -33 283 -52 0 -122 -37 -124 -66 -7 -111 -44 -254 -85 -324 -55 -97 -188
-239 -282 -304 -129 -89 -293 -123 -379 -80 -50 26 -76 60 -96 128 -14 48 -16
168 -3 182 4 3 17 7 29 9 339 46 594 241 602 461 6 144 -50 199 -190 189 -243
-18 -493 -254 -600 -566 -63 -185 -317 -388 -511 -408 -156 -16 -243 66 -244
227 0 83 9 100 51 100 41 0 196 47 269 82 146 70 262 171 321 281 30 56 33 70
34 148 0 78 -2 89 -27 121 -18 24 -40 39 -70 47 -206 56 -512 -157 -671 -467
-54 -104 -76 -173 -84 -267 -3 -38 -10 -76 -16 -84 -20 -24 -126 -92 -168
-107 -62 -21 -114 -18 -139 9 -31 32 -23 89 29 217 82 200 99 279 78 363 -17
72 -65 125 -194 221 -71 52 -83 78 -60 135 15 36 16 89 2 111 -10 17 -39 11
-72 -15z m1262 -211 c11 -12 14 -29 11 -64 -14 -145 -154 -289 -400 -411 -113
-56 -133 -61 -115 -27 7 13 13 35 15 51 2 30 75 163 134 243 120 161 297 266
355 208z m877 -46 c5 -7 7 -38 5 -69 -6 -100 -64 -182 -189 -265 -70 -47 -205
-116 -271 -140 -37 -13 -38 -13 -32 9 18 59 77 181 117 243 84 128 151 191
246 230 57 23 105 20 124 -8z m1927 -253 c30 -133 50 -281 45 -328 -1 -12 -4
-41 -5 -64 -3 -54 -16 -55 -114 -8 -77 37 -165 116 -203 183 l-22 39 29 31
c45 46 153 191 191 255 21 34 37 52 41 44 3 -6 20 -75 38 -152z m-268 -320
c63 -68 152 -127 229 -150 l59 -18 -16 -30 c-35 -68 -81 -97 -157 -97 -121 0
-227 135 -214 272 5 46 21 78 40 78 5 0 32 -25 59 -55z m-4684 -472 c-3 -5
-27 -55 -55 -113 -74 -153 -137 -242 -217 -307 -125 -103 -187 72 -72 203 44
49 147 123 260 184 71 39 92 47 84 33z"/>
</g>
</svg>
